<?xml version="1.0" encoding="UTF-8"?>
<svg xmlns="http://www.w3.org/2000/svg" width="66" height="66" viewBox="0 0 66 66" fill="none">
  <g clip-path="url(#clip0_9540_4673)">
    <path d="M64.5063 66H1.49374C0.669351 66 0 65.3306 0 64.5063V1.49374C0 0.669351 0.669351 0 1.49374 0H64.5038C65.3282 0 65.9975 0.669351 65.9975 1.49374V64.5038C65.9975 65.3282 65.3282 65.9975 64.5038 65.9975M1.49374 0.334676C0.853915 0.334676 0.334676 0.853915 0.334676 1.49374V64.5038C0.334676 65.1436 0.853915 65.6629 1.49374 65.6629H64.5038C65.1436 65.6629 65.6629 65.1436 65.6629 64.5038V1.49374C65.6629 0.853915 65.1436 0.334676 64.5038 0.334676H1.49374Z" fill="black"></path>
    <path d="M17.5654 58.8118C16.0569 60.3203 14.2433 61.061 12.1491 60.9823C10.1312 60.9306 8.39386 60.1653 6.98871 58.6839C5.58357 57.2024 4.89453 55.438 4.89453 53.3955C4.89453 51.353 5.65986 49.436 7.16836 47.9275C8.67686 46.3944 10.4905 45.6537 12.5847 45.73C14.6026 45.8062 16.3399 46.574 17.7451 48.0801C19.1502 49.5615 19.8663 51.3259 19.8663 53.3684C19.8663 55.4109 19.101 57.2763 17.5679 58.8118M12.1737 59.0678C13.7831 59.144 15.1366 58.6076 16.2612 57.4067C17.4104 56.2058 17.9469 54.8253 17.9223 53.2159C17.8706 51.6827 17.3095 50.381 16.2612 49.281C15.2129 48.1834 13.9628 47.6445 12.4789 47.6445C10.9212 47.6199 9.6169 48.181 8.51936 49.281C7.42182 50.3785 6.8829 51.6828 6.85829 53.2405C6.83368 54.7736 7.31847 56.127 8.36433 57.2763C9.41265 58.4255 10.6628 59.0136 12.1713 59.0653" fill="black"></path>
    <path d="M23.7717 40.951H21.8301V60.6501H23.7717V40.951Z" fill="black"></path>
    <path d="M27.9379 60.6501H25.9692V45.8062C25.9692 42.7154 28.0905 40.951 31.078 40.951H31.5898V42.6883L31.078 42.713C30.0567 42.7646 29.3406 42.9935 28.9075 43.4291C28.2677 44.1181 27.9379 44.7825 27.9379 45.474V46.0868H31.5923V47.8758H27.9379V60.6501Z" fill="black"></path>
    <path d="M46.0499 60.6501H44.16V58.3763C42.5752 60.1899 40.6336 61.0586 38.3352 60.9823C36.3173 60.906 34.6045 60.1382 33.1994 58.6568C31.7942 57.1754 31.0781 55.411 31.0781 53.3684C31.0781 51.3259 31.8434 49.4089 33.3519 47.9004C34.858 46.3673 36.6741 45.6512 38.7929 45.73C40.8379 45.8063 42.5752 46.574 44.005 48.0801C45.4347 49.5615 46.1262 51.3259 46.0499 53.3438V60.6501ZM33.0443 53.2159C33.0197 54.749 33.5045 56.1024 34.5528 57.2517C35.6012 58.4009 36.8783 58.989 38.3598 59.0653C39.9692 59.1416 41.3226 58.5805 42.4473 57.4042C43.5965 56.2033 44.1329 54.7982 44.1083 53.1888C44.0837 51.6557 43.5202 50.3539 42.4743 49.2539C41.426 48.1564 40.1488 47.6199 38.6674 47.6199C37.1097 47.6199 35.8054 48.1564 34.7079 49.2539C33.6103 50.3539 33.0739 51.6557 33.0468 53.2134" fill="black"></path>
    <path d="M61.0933 60.6501H59.1516V52.1675C59.1516 50.942 58.6915 49.8937 57.7982 49.0004C56.9049 48.1071 55.832 47.6716 54.6286 47.6962C53.4031 47.7208 52.3548 48.1293 51.5107 48.9488C50.6666 49.7411 50.2581 50.7624 50.2581 52.015V60.6501H48.2402V40.951H50.2065V48.1564C51.304 46.6995 52.7362 45.9342 54.4736 45.8579C56.2872 45.7816 57.8203 46.3698 59.1246 47.647C60.4264 48.9241 61.0908 50.5089 61.0908 52.3743V60.6526L61.0933 60.6501Z" fill="black"></path>
    <path d="M61.1053 16.4163H59.1538V36.2089H61.1053V16.4163Z" fill="black"></path>
    <path d="M36.6841 17.3957C36.6841 18.1832 37.3239 18.8206 38.1089 18.8206C38.8939 18.8206 39.5337 18.1832 39.5337 17.3957C39.5337 16.6083 38.8964 15.9709 38.1089 15.9709C37.3214 15.9709 36.6841 16.6083 36.6841 17.3957Z" fill="black"></path>
    <path d="M53.7768 16.4163V31.5702C53.7768 32.2642 53.4422 32.9311 52.8023 33.625C52.3668 34.0606 51.6457 34.2919 50.6196 34.3436L48.9093 34.3633H43.8916V27.0275H43.8793C43.7489 23.8629 41.197 21.338 38.0569 21.338C34.9169 21.338 32.2223 23.9982 32.2223 27.2785C32.2223 30.5588 34.8332 33.219 38.0569 33.219C39.5753 33.219 40.9533 32.6235 41.9918 31.6564V34.3633H24.4681C23.2623 34.3879 22.182 33.9523 21.2838 33.0541C20.3856 32.1559 19.9229 31.1027 19.9229 29.8698V29.2644C19.9278 29.1438 19.9401 29.0257 19.9401 28.9027C19.9401 28.7796 19.9278 28.6492 19.9229 28.5237V21.3479H17.9715V23.7767C17.9173 23.7152 17.8657 23.6512 17.8091 23.5897C16.3965 22.0763 14.6518 21.3036 12.624 21.2273C10.5176 21.151 8.69653 21.8942 7.18064 23.4347C5.66476 24.9481 4.89697 26.7986 4.89697 28.9297C4.89697 31.0608 5.59093 32.7539 7.001 34.2452C8.41353 35.734 10.1583 36.5042 12.186 36.5559C14.2925 36.6322 16.1135 35.889 17.6294 34.3731C18.0871 33.913 18.471 33.4257 18.7934 32.9188C19.0961 33.4577 19.48 33.9597 19.95 34.4199C21.2592 35.7045 22.7997 36.2951 24.6231 36.2163H49.02H50.622C53.6267 36.2163 55.7578 34.4445 55.7578 31.3389V16.4212H53.7818L53.7768 16.4163ZM17.969 29.3358C17.8681 30.704 17.3292 31.9 16.3178 32.9557C15.1882 34.1615 13.8274 34.7004 12.2106 34.6241C10.6972 34.5725 9.43724 33.9819 8.38646 32.8277C7.33321 31.6711 6.84597 30.3127 6.87304 28.7722C6.89764 27.2071 7.43657 25.898 8.54149 24.7931C9.64641 23.6881 10.9556 23.1246 12.5207 23.1492C14.0095 23.1492 15.267 23.6881 16.3202 24.7931C17.3218 25.8438 17.8755 27.0816 17.9715 28.5262V29.3358H17.969ZM38.0545 31.2872C35.8815 31.2872 34.1196 29.4933 34.1196 27.281C34.1196 25.0687 35.8815 23.2747 38.0545 23.2747C40.2274 23.2747 41.9894 25.0687 41.9894 27.281C41.9894 29.4933 40.2274 31.2872 38.0545 31.2872Z" fill="black"></path>
    <path d="M60.3178 11.1181H61.1053V10.0723H60.3178C59.176 10.0723 58.2458 11.0025 58.2458 12.1443C58.2458 12.5184 58.3541 12.8653 58.5288 13.1705H55.748V14.2163H61.1078V13.1705H60.3203C59.7543 13.1705 59.2941 12.7103 59.2941 12.1443C59.2941 11.5783 59.7543 11.1181 60.3203 11.1181" fill="black"></path>
    <path d="M60.2812 6.43513C60.1433 6.42282 60.0006 6.4302 59.8579 6.46466L59.7914 6.48188C59.6487 6.51633 59.5183 6.57539 59.4026 6.64922C58.9597 6.93714 58.7234 7.48345 58.8563 8.02483C58.9105 8.24877 59.0261 8.44072 59.1762 8.59821L57.5127 9.00671L57.6677 9.63423L60.099 9.03624L60.5568 8.92304C60.6306 8.9009 60.702 8.87383 60.7635 8.83938C61.2335 8.59083 61.3836 8.05436 61.3836 8.05436C61.4427 7.84765 61.4574 7.62372 61.4008 7.39978C61.2679 6.85839 60.8078 6.48434 60.2812 6.43513ZM60.3156 8.31768L60.2492 8.3349C59.9096 8.41857 59.5675 8.21186 59.4838 7.87226C59.4002 7.53513 59.6069 7.19061 59.9465 7.10694L60.0129 7.08971C60.3525 7.00604 60.6946 7.21522 60.7782 7.55235C60.8619 7.89195 60.6552 8.23401 60.3156 8.31768Z" fill="black"></path>
  </g>
  <defs>
    <clipPath id="clip0_9540_4673">
      <rect width="66" height="66" fill="white"></rect>
    </clipPath>
  </defs>
</svg>
